<svg id="Layer_1" data-name="Layer 1" xmlns="http://www.w3.org/2000/svg" viewBox="0 0 2834.65 2834.65"><circle cx="1417.32" cy="1417.32" r="1388.91"/><circle cx="1417.01" cy="1417.77" r="121.06" style="fill:#fff"/><circle cx="2010.77" cy="2449.26" r="121.06" style="fill:#fff"/><circle cx="839.67" cy="1979.35" r="121.06" style="fill:#fff"/><circle cx="839.67" cy="1459.66" r="121.06" style="fill:#fff"/><circle cx="1278.12" cy="994.4" r="121.06" style="fill:#fff"/><circle cx="930.89" cy="793.45" r="121.06" style="fill:#fff"/><circle cx="560.51" cy="914.51" r="121.06" style="fill:#fff"/><circle cx="1399.18" cy="506.41" r="121.06" style="fill:#fff"/><circle cx="976.49" cy="489.27" r="121.06" style="fill:#fff"/><circle cx="2379.99" cy="741.83" r="121.06" style="fill:#fff"/><circle cx="2037.39" cy="1041.39" r="121.06" style="fill:#fff"/><circle cx="2312.86" cy="1201.56" r="121.06" style="fill:#fff"/><circle cx="597.55" cy="2274.27" r="121.06" style="fill:#fff"/><circle cx="1782.75" cy="2257.13" r="121.06" style="fill:#fff"/><polyline points="597.55 2274.27 839.67 1979.35 1417.01 1417.77 1782.75 2257.13 2010.77 2449.26" style="fill:none;stroke:#fff;stroke-miterlimit:10;stroke-width:0.5px"/><polyline points="1417.01 1417.77 2037.39 1041.39 2312.86 1201.56" style="fill:none;stroke:#fff;stroke-miterlimit:10;stroke-width:0.5px"/><polyline points="976.49 489.27 1278.12 994.4 1417.01 1417.77 839.67 1459.66" style="fill:none;stroke:#fff;stroke-miterlimit:10;stroke-width:0.5px"/><polyline points="560.51 914.51 949.41 793.45 1278.12 994.4 1399.18 506.41" style="fill:none;stroke:#fff;stroke-miterlimit:10;stroke-width:0.5px"/><line x1="2379.99" y1="741.83" x2="2037.39" y2="1041.39" style="fill:none;stroke:#fff;stroke-miterlimit:10;stroke-width:0.5px"/></svg>